# xmcd CD database file
# Copyright (C) 1997 Ti Kan
# 
# Track frame offsets:
#     150
#     17905
#     38055
#     60037
#     89200
#     106787
#     124812
#     138350
#     159180
#     179825
#     191100
#     208200
#     220760
#     233135
#     244625
#     262315
#     275712
#     293200
# 
# Disc length: 4076 seconds
# 
# Revision: 1
# Processed by: cddbd v1.4b41PL1 Copyright (c) Steve Scherf et al.
# Submitted via: DiscPlay 4.0.4
# 
DISCID=140fea12
DTITLE=Tom Waits - Tom Waits
DYEAR=1900
DGENRE=
TTITLE0=The Heart of Saturday Night
TTITLE1=Martha
TTITLE2=Grapefruit Moon
TTITLE3=Tom Traubert's Blues
TTITLE4=Somewhere
TTITLE5=Who Are You
TTITLE6=A Little Rain
TTITLE7=Black Wings
TTITLE8=Whistle Down The Wind
TTITLE9=I Don't Wanna Grow Up
TTITLE10=Clap Hands
TTITLE11=Jockey Full of Bourbon
TTITLE12=Big Black Mariah
TTITLE13=Hang Down Your Head
TTITLE14=Time
TTITLE15=Rain Dogs
TTITLE16=Downtown Train
TTITLE17=Anywhere I Lay My Head
EXTD=
EXTT0=
EXTT1=
EXTT2=
EXTT3=
EXTT4=
EXTT5=
EXTT6=
EXTT7=
EXTT8=
EXTT9=
EXTT10=
EXTT11=
EXTT12=
EXTT13=
EXTT14=
EXTT15=
EXTT16=
EXTT17=
PLAYORDER=
